PathFileType	4	(x/y/z)	TRC_MarkerData\Passive\Passive_Pref0002.trc
DataRate	CameraRate	NumFrames	NumMarkers	Units	OrigDataRate	OrigDataStartFrame	OrigNumFrames
240	240	10	50	mm	240	76	303
Frame#	Time	R_AC			L_AC			HEAD			STERN			C7			L_IC			R_IC			L_ASIS			R_ASIS			L_GT			R_GT			L_PSIS			R_PSIS			SACRAL			L_LAT_KNEE			L_MED_KNEE			R_LAT_KNEE			R_MED_KNEE			L_LAT_ANK			L_MED_ANK			R_LAT_ANK			R_MED_ANK			L_THIGH_PROX_POST			L_THIGH_PROX_ANT			L_THIGH_DIST_ANT			L_THIGH_DIST_POST			R_THIGH_PROX_POST			R_THIGH_PROX_ANT			R_THIGH_DIST_ANT			R_THIGH_DIST_POST			L_SHANK_PROX_POST			L_SHANK_PROX_ANT			L_SHANK_DIST_ANT			L_SHANK_DIST_POST			R_SHANK_PROX_POST			R_SHANK_PROX_ANT			R_SHANK_DIST_ANT			R_SHANK_DIST_POST			L_HEEL_LAT			L_HEEL_SUP			L_HEEL_MED			R_HEEL_LAT			R_HEEL_SUP			R_HEEL_MED			L_1ST_MET			L_5TH_MET			L_TOE			R_1ST_MET			R_5TH_MET			R_TOE			
		X1	Y1	Z1	X2	Y2	Z2	X3	Y3	Z3	X4	Y4	Z4	X5	Y5	Z5	X6	Y6	Z6	X7	Y7	Z7	X8	Y8	Z8	X9	Y9	Z9	X10	Y10	Z10	X11	Y11	Z11	X12	Y12	Z12	X13	Y13	Z13	X14	Y14	Z14	X15	Y15	Z15	X16	Y16	Z16	X17	Y17	Z17	X18	Y18	Z18	X19	Y19	Z19	X20	Y20	Z20	X21	Y21	Z21	X22	Y22	Z22	X23	Y23	Z23	X24	Y24	Z24	X25	Y25	Z25	X26	Y26	Z26	X27	Y27	Z27	X28	Y28	Z28	X29	Y29	Z29	X30	Y30	Z30	X31	Y31	Z31	X32	Y32	Z32	X33	Y33	Z33	X34	Y34	Z34	X35	Y35	Z35	X36	Y36	Z36	X37	Y37	Z37	X38	Y38	Z38	X39	Y39	Z39	X40	Y40	Z40	X41	Y41	Z41	X42	Y42	Z42	X43	Y43	Z43	X44	Y44	Z44	X45	Y45	Z45	X46	Y46	Z46	X47	Y47	Z47	X48	Y48	Z48	X49	Y49	Z49	X50	Y50	Z50	
 
76	0.31353	-517.66	1541.4	458.11	-522.52	1556	65.975	-408.57	1846.6	274.18	-420.66	1507.3	264.38	-565.05	1593.5	263.98	-529.99	1101.3	111.74	-532.06	1126.3	449.79	-464.5	1042.3	145.28	-467.14	1042.8	415.02	-553.56	964.59	95.487	-547.79	971.92	468	-672.52	1070.4	234.19	-664.34	1067.7	341.88	-682.76	1044.8	289.5	-513.04	560.07	143.06	-503.37	574.4	278.82	-450.51	562.98	460.5	-411.66	551.56	326.01	-553.56	114.26	178.15	-561.82	119.36	254.82	-771.94	249.55	404.14	-726.83	243.38	311.18	-571.08	809.96	115.57	-505.61	805.14	107.96	-503.97	730.35	120.88	-568.62	736.12	129.43	-522.97	792.21	468.02	-457.36	809.44	473.83	-444.38	736.79	472.54	-509.35	718.32	462.08	-506.4	507.17	153.19	-465.25	524.13	166.61	-463.8	474.21	175.58	-510.04	453.46	160.89	-589.76	496.2	442.39	-536.25	456.45	464.8	-581.48	398.36	454.31	-635.71	435.52	433.17	-614.55	39.989	179.55	-627.64	66.56	213.33	-619.5	36.354	245.69	-854.05	251.72	365.55	-836.28	272.98	331.78	-836.75	240.51	301.64	-397.37	55.666	286.49	-406.18	46.076	180.34	-344.72	68.2	265.39	-670.1	90.051	342.82	-721.77	108.13	442.29	-639.49	72.165	400.02
77	0.31772	-512.55	1541.8	458.22	-517.1	1556.7	66.149	-403	1847	274.51	-415.43	1507.7	264.56	-559.71	1594	264.13	-524.76	1101.9	111.66	-526.8	1126.9	449.76	-459.49	1042.6	145.07	-461.76	1043.6	414.81	-548.84	964.92	95.517	-541.93	972.76	468.12	-667.32	1070.8	234.36	-659.03	1068.1	342.08	-677.48	1045.2	289.71	-510.53	560.18	143	-500.73	574.48	278.77	-440.88	564.52	460.62	-402.41	553.61	326.03	-553.21	114.48	178.18	-561.54	119.69	254.82	-757.8	245.86	404.56	-712.91	240.84	311.47	-567.1	810.47	115.49	-501.69	805.28	107.93	-500.49	730.46	120.82	-565.21	736.52	129.51	-515.39	793.28	468.4	-449.95	811.12	473.89	-436.32	738.62	472.69	-501.16	719.52	462.56	-504.15	507.24	153.13	-462.9	524.02	166.52	-461.68	474.09	175.5	-508.02	453.56	160.85	-579.59	495.55	442.83	-525.37	456.61	465.02	-569.71	397.82	454.5	-624.59	434.17	433.65	-614.45	40.268	179.57	-627.47	66.836	213.37	-619.32	36.571	245.67	-840.14	246.24	366.32	-823.19	268.02	332.44	-822.85	235.49	302.32	-397.18	55.423	286.48	-406.07	45.87	180.34	-344.51	67.793	265.38	-652.61	88.849	342.82	-704.42	105.57	442.43	-621.46	71.602	399.92
78	0.3219	-507.44	1542.3	458.33	-511.69	1557.3	66.327	-397.44	1847.4	274.85	-410.2	1508.1	264.73	-554.38	1594.5	264.29	-519.55	1102.4	111.59	-521.55	1127.4	449.75	-454.48	1042.9	144.86	-456.38	1044.4	414.6	-544.13	965.22	95.551	-536.09	973.57	468.25	-662.12	1071.2	234.55	-653.74	1068.5	342.3	-672.21	1045.5	289.92	-508.02	560.28	142.96	-498.1	574.55	278.73	-431.35	566.04	460.72	-393.29	555.62	326.06	-552.85	114.71	178.22	-561.26	120.01	254.82	-743.55	242.05	404.97	-698.88	238.18	311.78	-563.13	810.95	115.44	-497.79	805.4	107.9	-497.02	730.56	120.77	-561.78	736.92	129.59	-507.86	794.34	468.79	-442.58	812.76	473.96	-428.32	740.42	472.85	-493.04	720.71	463.06	-501.89	507.32	153.09	-460.54	523.92	166.44	-459.55	473.97	175.43	-506	453.66	160.83	-569.49	494.81	443.24	-514.55	456.73	465.23	-557.96	397.22	454.7	-613.5	432.73	434.12	-614.35	40.557	179.6	-627.31	67.121	213.41	-619.13	36.788	245.65	-826.06	240.61	367.07	-809.95	262.89	333.09	-808.78	230.32	302.99	-397	55.182	286.47	-405.95	45.672	180.35	-344.3	67.388	265.37	-635.01	87.619	342.85	-686.94	102.97	442.59	-603.34	71.037	399.86
79	0.32608	-502.31	1542.7	458.44	-506.28	1557.9	66.506	-391.9	1847.8	275.19	-404.97	1508.5	264.89	-549.07	1595	264.46	-514.36	1102.8	111.53	-516.29	1127.8	449.74	-449.47	1043.1	144.66	-450.99	1045	414.4	-539.43	965.49	95.591	-530.26	974.35	468.4	-656.94	1071.5	234.74	-648.45	1068.8	342.51	-666.94	1045.8	290.14	-505.5	560.37	142.94	-495.47	574.61	278.71	-421.93	567.54	460.82	-384.29	557.6	326.09	-552.5	114.95	178.26	-560.99	120.33	254.82	-729.18	238.13	405.37	-684.72	235.4	312.1	-559.17	811.41	115.42	-493.89	805.51	107.88	-493.56	730.64	120.73	-558.32	737.32	129.65	-500.36	795.37	469.19	-435.25	814.37	474.03	-420.39	742.18	473	-484.97	721.88	463.57	-499.62	507.39	153.06	-458.18	523.81	166.38	-457.42	473.85	175.37	-503.97	453.77	160.82	-559.46	493.99	443.62	-503.8	456.81	465.44	-546.24	396.58	454.91	-602.43	431.2	434.55	-614.25	40.856	179.63	-627.14	67.415	213.45	-618.93	37.007	245.63	-811.81	234.83	367.81	-796.54	257.61	333.72	-794.54	225	303.66	-396.83	54.942	286.47	-405.84	45.481	180.35	-344.09	66.988	265.37	-617.3	86.369	342.93	-669.35	100.36	442.79	-585.14	70.478	399.85
80	0.33026	-497.17	1543	458.55	-500.88	1558.5	66.686	-386.37	1848.1	275.54	-399.73	1508.9	265.06	-543.77	1595.4	264.63	-509.19	1103.2	111.47	-511.02	1128.2	449.74	-444.45	1043.3	144.46	-445.6	1045.7	414.21	-534.74	965.74	95.636	-524.44	975.09	468.55	-651.76	1071.8	234.94	-643.17	1069.1	342.74	-661.68	1046	290.37	-502.97	560.47	142.93	-492.83	574.66	278.71	-412.63	569.02	460.9	-375.42	559.54	326.13	-552.14	115.2	178.31	-560.72	120.65	254.82	-714.7	234.1	405.78	-670.44	232.51	312.43	-555.22	811.84	115.44	-490.01	805.59	107.88	-490.1	730.7	120.7	-554.83	737.72	129.7	-492.92	796.38	469.6	-427.96	815.94	474.11	-412.52	743.9	473.16	-476.98	723.03	464.08	-497.34	507.47	153.05	-455.81	523.7	166.33	-455.28	473.73	175.33	-501.94	453.87	160.82	-549.48	493.1	443.96	-493.12	456.85	465.65	-534.55	395.9	455.12	-591.38	429.58	434.96	-614.14	41.165	179.66	-626.96	67.72	213.49	-618.7	37.229	245.62	-797.39	228.94	368.52	-782.96	252.19	334.33	-780.11	219.54	304.32	-396.65	54.706	286.46	-405.72	45.298	180.36	-343.89	66.592	265.36	-599.48	85.107	343.06	-651.66	97.756	443.03	-566.86	69.935	399.92
81	0.33444	-492.01	1543.3	458.67	-495.49	1559.1	66.868	-380.85	1848.5	275.89	-394.49	1509.2	265.21	-538.5	1595.8	264.81	-504.04	1103.6	111.41	-505.76	1128.6	449.75	-439.44	1043.5	144.28	-440.21	1046.3	414.03	-530.06	965.97	95.688	-518.63	975.8	468.71	-646.59	1072.1	235.15	-637.9	1069.4	342.98	-656.42	1046.3	290.6	-500.44	560.56	142.93	-490.2	574.71	278.71	-403.43	570.46	460.98	-366.67	561.42	326.18	-551.79	115.45	178.36	-560.46	120.98	254.83	-700.11	229.99	406.19	-656.03	229.51	312.78	-551.28	812.26	115.48	-486.15	805.66	107.87	-486.65	730.76	120.7	-551.32	738.14	129.75	-485.53	797.36	470.02	-420.72	817.46	474.19	-404.72	745.57	473.32	-469.05	724.15	464.59	-495.07	507.54	153.05	-453.43	523.58	166.29	-453.13	473.61	175.29	-499.91	453.97	160.84	-539.56	492.12	444.26	-482.51	456.86	465.86	-522.88	395.18	455.34	-580.35	427.88	435.33	-614.03	41.484	179.68	-626.79	68.034	213.53	-618.47	37.455	245.61	-782.8	222.93	369.2	-769.19	246.63	334.91	-765.51	213.95	304.96	-396.48	54.474	286.46	-405.6	45.125	180.37	-343.68	66.202	265.36	-581.57	83.84	343.27	-633.88	95.163	443.33	-548.52	69.417	400.06
82	0.33862	-486.84	1543.6	458.79	-490.1	1559.6	67.05	-375.34	1848.7	276.25	-389.25	1509.5	265.37	-533.25	1596.2	265	-498.92	1103.9	111.35	-500.49	1129	449.77	-434.42	1043.6	144.1	-434.81	1046.9	413.86	-525.39	966.17	95.747	-512.84	976.47	468.88	-641.44	1072.3	235.37	-632.63	1069.6	343.22	-651.18	1046.4	290.84	-497.9	560.64	142.95	-487.57	574.75	278.74	-394.36	571.87	461.05	-358.03	563.24	326.23	-551.45	115.72	178.41	-560.21	121.3	254.84	-685.41	225.81	406.59	-641.5	226.42	313.15	-547.35	812.66	115.56	-482.29	805.72	107.88	-483.2	730.8	120.71	-547.79	738.56	129.79	-478.21	798.3	470.44	-413.54	818.93	474.28	-397	747.2	473.47	-461.21	725.24	465.1	-492.78	507.61	153.06	-451.05	523.46	166.27	-450.99	473.49	175.27	-497.87	454.07	160.86	-529.7	491.06	444.52	-471.98	456.83	466.06	-511.25	394.41	455.57	-569.34	426.11	435.67	-613.93	41.812	179.71	-626.61	68.359	213.57	-618.22	37.687	245.6	-768.04	216.83	369.84	-755.23	240.95	335.47	-750.71	208.25	305.59	-396.3	54.247	286.45	-405.48	44.96	180.38	-343.48	65.817	265.36	-563.57	82.577	343.56	-616.02	92.599	443.69	-530.12	68.935	400.29
83	0.3428	-481.65	1543.8	458.92	-484.72	1560.1	67.232	-369.84	1849	276.61	-384	1509.7	265.51	-528.02	1596.6	265.19	-493.83	1104.2	111.29	-495.21	1129.3	449.8	-429.4	1043.8	143.94	-429.41	1047.4	413.7	-520.73	966.35	95.816	-507.05	977.11	469.06	-636.29	1072.5	235.6	-627.37	1069.8	343.47	-645.93	1046.6	291.08	-495.36	560.73	142.98	-484.95	574.79	278.77	-385.41	573.24	461.1	-349.52	565.01	326.29	-551.11	116	178.47	-559.96	121.63	254.85	-670.61	221.56	406.99	-626.82	223.24	313.54	-543.42	813.04	115.66	-478.46	805.76	107.89	-479.76	730.83	120.73	-544.24	738.99	129.83	-470.95	799.21	470.86	-406.4	820.35	474.37	-389.36	748.77	473.62	-453.44	726.3	465.6	-490.49	507.67	153.08	-448.67	523.34	166.25	-448.84	473.37	175.25	-495.83	454.17	160.89	-519.91	489.92	444.74	-461.52	456.76	466.25	-499.65	393.62	455.8	-558.35	424.25	435.98	-613.82	42.149	179.74	-626.43	68.693	213.6	-617.97	37.927	245.61	-753.1	210.64	370.45	-741.08	235.17	336	-735.71	202.46	306.19	-396.13	54.026	286.44	-405.36	44.804	180.38	-343.28	65.439	265.36	-545.49	81.326	343.93	-598.08	90.075	444.11	-511.67	68.498	400.63
84	0.34698	-476.45	1543.9	459.05	-479.35	1560.5	67.414	-364.34	1849.2	276.97	-378.75	1509.9	265.66	-522.82	1596.9	265.39	-488.76	1104.4	111.24	-489.93	1129.6	449.85	-424.38	1043.9	143.79	-424.01	1047.9	413.55	-516.07	966.51	95.894	-501.28	977.7	469.24	-631.15	1072.7	235.85	-622.11	1070	343.73	-640.69	1046.7	291.34	-492.81	560.81	143.03	-482.32	574.82	278.82	-376.58	574.57	461.15	-341.13	566.71	326.36	-550.79	116.29	178.53	-559.71	121.96	254.87	-655.71	217.27	407.4	-612.01	219.98	313.94	-539.51	813.42	115.79	-474.63	805.79	107.91	-476.31	730.85	120.77	-540.68	739.43	129.87	-463.76	800.09	471.28	-399.32	821.72	474.47	-381.8	750.28	473.76	-445.76	727.31	466.1	-488.2	507.74	153.11	-446.29	523.21	166.25	-446.68	473.25	175.25	-493.79	454.26	160.93	-510.16	488.71	444.91	-451.14	456.64	466.44	-488.08	392.79	456.04	-547.38	422.33	436.25	-613.71	42.493	179.77	-626.25	69.036	213.64	-617.73	38.177	245.62	-737.99	204.38	371.03	-726.73	229.29	336.5	-720.52	196.57	306.77	-395.97	53.812	286.44	-405.24	44.657	180.39	-343.09	65.067	265.36	-527.33	80.096	344.4	-580.08	87.604	444.61	-493.18	68.115	401.07
85	0.35116	-471.23	1544.1	459.19	-473.99	1560.9	67.596	-358.84	1849.4	277.34	-373.5	1510.1	265.8	-517.65	1597.2	265.58	-483.72	1104.6	111.19	-484.64	1129.8	449.9	-419.37	1043.9	143.65	-418.6	1048.4	413.42	-511.42	966.65	95.983	-495.52	978.25	469.43	-626.02	1072.8	236.1	-616.86	1070.1	343.99	-635.46	1046.8	291.6	-490.26	560.89	143.08	-479.69	574.84	278.87	-367.88	575.85	461.18	-332.85	568.35	326.44	-550.48	116.59	178.6	-559.46	122.3	254.89	-640.7	212.93	407.8	-597.06	216.65	314.37	-535.61	813.78	115.93	-470.82	805.81	107.94	-472.87	730.86	120.83	-537.11	739.87	129.92	-456.64	800.92	471.7	-392.31	823.03	474.57	-374.34	751.72	473.9	-438.17	728.29	466.58	-485.9	507.8	153.14	-443.9	523.08	166.27	-444.53	473.13	175.25	-491.74	454.36	160.97	-500.48	487.41	445.03	-440.84	456.49	466.62	-476.56	391.92	456.29	-536.43	420.32	436.48	-613.6	42.844	179.8	-626.07	69.387	213.67	-617.49	38.441	245.64	-722.71	198.07	371.56	-712.18	223.32	336.97	-705.12	190.6	307.33	-395.8	53.606	286.43	-405.12	44.519	180.4	-342.9	64.703	265.35	-509.09	78.898	344.96	-562.02	85.196	445.17	-474.65	67.797	401.63
